<svg width="72" height="76" viewBox="0 0 72 76" fill="none" xmlns="http://www.w3.org/2000/svg">
<g clip-path="url(#clip0_282_1026)">
<path d="M36.0003 74.2223C38.9679 74.2223 41.3736 72.8035 41.3736 71.0534C41.3736 69.3033 38.9679 67.8845 36.0003 67.8845C33.0327 67.8845 30.627 69.3033 30.627 71.0534C30.627 72.8035 33.0327 74.2223 36.0003 74.2223Z" fill="#424242"/>
<path d="M36.0001 20.8889C26.6313 20.8889 19.0312 27.8534 19.0312 36.44C19.0312 38.68 19.7068 41.0756 20.6979 43.1867C22.089 46.1556 23.6046 48.3511 24.049 49.16C25.2846 51.4089 25.1068 53.7778 25.449 55.2622C26.0935 58.0356 28.0224 59.04 35.9957 59.04C43.969 59.04 45.6846 58.0845 46.4001 55.5289C46.889 53.7911 46.4135 51.8934 47.6446 49.6489C48.089 48.84 49.8979 46.16 51.2935 43.1867C52.2846 41.0756 52.9601 38.68 52.9601 36.44C52.969 27.8534 45.369 20.8889 36.0001 20.8889Z" fill="#FFD600"/>
<path d="M36.0011 59.3734C41.3865 59.3734 45.7522 58.4859 45.7522 57.3912C45.7522 56.2964 41.3865 55.4089 36.0011 55.4089C30.6157 55.4089 26.25 56.2964 26.25 57.3912C26.25 58.4859 30.6157 59.3734 36.0011 59.3734Z" fill="#B26500"/>
<path d="M36.0011 59.3734C41.3865 59.3734 45.7522 58.4859 45.7522 57.3912C45.7522 56.2964 41.3865 55.4089 36.0011 55.4089C30.6157 55.4089 26.25 56.2964 26.25 57.3912C26.25 58.4859 30.6157 59.3734 36.0011 59.3734Z" fill="#B26500"/>
<path d="M35.9992 58.3067C39.9241 58.3067 43.1059 57.8968 43.1059 57.3911C43.1059 56.8855 39.9241 56.4756 35.9992 56.4756C32.0743 56.4756 28.8926 56.8855 28.8926 57.3911C28.8926 57.8968 32.0743 58.3067 35.9992 58.3067Z" fill="#FFA000"/>
<path d="M31.2429 44.3424C30.9673 45.0357 30.2518 46.4624 30.6251 47.1024C31.4918 48.5913 33.5584 49.1246 33.5584 50.4935C33.5584 52.5824 32.0384 59.3513 32.0384 59.3513M40.4562 44.0935C40.4562 44.0935 41.4518 46.2268 41.0295 47.1824C40.714 47.8935 38.8162 49.0402 38.5718 49.2313C37.4384 50.1202 38.9451 59.3557 38.9451 59.3557" stroke="#B26500" stroke-width="2" stroke-miterlimit="10"/>
<path d="M31.2441 44.3423C32.773 41.3201 33.5596 34.4223 31.6174 34.7734C28.3419 35.3645 32.3774 46.6979 34.3641 45.3956C36.3507 44.0934 38.813 34.7956 35.7907 34.7601C32.7685 34.7245 35.9952 46.609 38.0485 45.289C39.6707 44.2445 43.6307 34.7734 40.3774 34.7734C37.6085 34.7734 40.4619 44.0934 40.4619 44.0934" stroke="white" stroke-width="2" stroke-miterlimit="10"/>
<path d="M45.7286 57.8044C45.7286 57.8044 43.1686 59.04 35.9997 59.04C28.8308 59.04 26.2708 57.8044 26.2708 57.8044C26.2708 57.8044 26.1108 60.0889 26.6397 61.1244C27.2752 62.3689 27.7641 62.8 27.7641 62.8L28.0308 64.0667L27.9241 64.4C27.7863 64.8356 27.8841 65.3156 28.1908 65.6578L28.4219 65.9156L28.6797 67.1333L28.5908 67.3778C28.4219 67.8444 28.5375 68.3644 28.8841 68.72L29.053 68.8933L29.2619 69.8889C29.2619 69.8889 30.3197 72.1467 35.9997 72.1467C41.6797 72.1467 42.7375 69.8889 42.7375 69.8889L42.7552 69.8044L42.8708 69.6889C43.1019 69.4622 43.1775 69.1244 43.0663 68.8222L42.9997 68.6489L43.2752 67.3333L43.7597 66.8222C43.9997 66.5689 44.053 66.1956 43.8974 65.8844L43.6752 65.4444L43.9552 64.1244L44.133 63.9867C44.3952 63.6978 44.3997 63.2622 44.2841 62.9644C44.1952 62.7289 44.2663 62.4622 44.4486 62.2889C44.7286 62.0222 45.0886 61.6178 45.3552 61.1156C45.9019 60.0978 45.7286 57.8044 45.7286 57.8044Z" fill="#82AEC0"/>
<path d="M27.7656 62.8L28.0056 64.0755C30.5923 64.0622 34.0456 64.1911 40.6723 63.1377C41.8678 62.8666 43.3034 62.3289 41.7167 62.5511C41.7167 62.5466 35.6323 63.1289 27.7656 62.8ZM28.6545 67.1422C31.5167 67.0933 37.3656 66.8089 43.6501 65.4444L43.9301 64.1244C37.3567 65.6177 31.1745 65.8844 28.3967 65.92L28.6545 67.1422ZM43.2501 67.3289C37.4323 68.5911 31.9878 68.9155 29.0412 68.9866L29.2323 69.8933C29.2323 69.8933 29.3256 72.7066 35.9701 72.7066C42.6145 72.7066 42.7078 69.8933 42.7078 69.8933C42.7078 69.8933 39.8723 70.7022 36.3834 70.3066C36.3466 70.3069 36.3102 70.3 36.2761 70.2862C36.242 70.2724 36.211 70.252 36.1848 70.2262C36.1318 70.1741 36.1018 70.1031 36.1012 70.0289C36.1006 69.9546 36.1295 69.8831 36.1816 69.8302C36.2337 69.7773 36.3047 69.7472 36.379 69.7466C38.4634 69.4711 40.9523 69.0622 42.9745 68.6444L43.2501 67.3289Z" fill="#2F7889"/>
<path d="M26.3027 57.8044C26.3027 57.8044 29.1738 59.04 35.9738 59.04C42.7738 59.04 45.6983 57.8044 45.6983 57.8044" stroke="#82AEC0" stroke-width="3.997" stroke-miterlimit="10" stroke-linecap="round"/>
<path d="M29.7244 23.6978C31.4622 23.2712 33.28 23.4845 34.5244 24.9956C34.8755 25.4223 35.1466 25.9289 35.2089 26.4801C35.3333 27.5423 34.6755 28.5467 33.8933 29.2845C31.6622 31.3912 28.4933 32.4134 27.0533 35.3201C26.7155 36.0001 26.4489 36.7334 25.9333 37.2889C25.4177 37.8445 24.56 38.1823 23.8889 37.8267C23.5333 37.6401 23.2889 37.2889 23.0889 36.9378C21.8266 34.6889 21.92 31.8223 23.0311 29.4934C24.2533 26.9423 26.9333 24.3823 29.7244 23.6978Z" fill="#FFFF8D"/>
<path d="M28.2011 59.9688C27.81 59.791 27.9656 59.2044 28.3923 59.2355C29.8234 59.3466 32.2589 59.4844 35.4811 59.4844C38.8767 59.4844 41.8634 59.231 43.6056 59.0444C44.0367 58.9999 44.2011 59.591 43.8056 59.7733C42.4634 60.4044 40.0056 61.1244 35.7922 61.1244C31.6811 61.1244 29.4145 60.5155 28.2011 59.9688Z" fill="#FFD600"/>
<path d="M30.6395 64.4578C30.3417 64.5645 30.035 64.7111 29.8839 64.9867C29.8306 65.0889 29.7995 65.2045 29.8217 65.32C29.8573 65.4889 30.0128 65.6089 30.1684 65.6845C30.4795 65.8356 30.8306 65.8756 31.1728 65.88C31.8795 65.8889 32.5817 65.7556 33.2795 65.6223C33.4884 65.5823 33.7017 65.5423 33.8884 65.44C34.075 65.3378 34.235 65.1645 34.2662 64.9556C34.3106 64.6756 34.1106 64.4045 33.8662 64.2711C33.0217 63.8045 31.4928 64.1511 30.6395 64.4578ZM31.3017 67.3867C31.0039 67.4934 30.6973 67.64 30.5462 67.9156C30.4928 68.0178 30.4617 68.1334 30.4839 68.2489C30.5195 68.4178 30.675 68.5378 30.8306 68.6134C31.1417 68.7645 31.4928 68.8045 31.835 68.8089C32.5417 68.8178 33.2439 68.6845 33.9417 68.5511C34.1506 68.5111 34.3639 68.4711 34.5506 68.3689C34.7373 68.2667 34.8973 68.0934 34.9284 67.8845C34.9728 67.6045 34.7728 67.3334 34.5284 67.2C33.6839 66.7378 32.1506 67.0845 31.3017 67.3867Z" fill="#94D1E0"/>
<path d="M29.7829 56.5332C30.1874 56.5732 30.614 56.5376 30.9563 56.3199C31.2985 56.1021 31.5163 55.6576 31.3785 55.2754C31.3074 55.0754 31.1518 54.9154 31.0007 54.7643C30.6674 54.4354 30.334 54.1065 30.0051 53.7776C29.6363 53.4088 29.2674 53.0443 28.8674 52.711C28.2496 52.1954 27.4185 51.711 26.6051 52.0888C25.9118 52.4088 25.7474 53.0399 26.054 53.7021C26.7074 55.0932 28.2274 56.3732 29.7829 56.5332Z" fill="#FFFF8D"/>
<g filter="url(#filter0_f_282_1026)">
<path d="M17.5 45.5C13.1666 37.5 14.5038 16.5 36.0009 16.5C57.499 16.5 58.5 34.1667 55 45.5" stroke="#FFD600" stroke-width="5" stroke-linecap="round"/>
</g>
</g>
<defs>
<filter id="filter0_f_282_1026" x="-8.98828" y="-8" width="90.0254" height="78.0007" filterUnits="userSpaceOnUse" color-interpolation-filters="sRGB">
<feFlood flood-opacity="0" result="BackgroundImageFix"/>
<feBlend mode="normal" in="SourceGraphic" in2="BackgroundImageFix" result="shape"/>
<feGaussianBlur stdDeviation="11" result="effect1_foregroundBlur_282_1026"/>
</filter>
<clipPath id="clip0_282_1026">
<rect width="72" height="76" fill="white"/>
</clipPath>
</defs>
</svg>
