<svg width="50" height="50" viewBox="0 0 50 50" fill="none" xmlns="http://www.w3.org/2000/svg">
<path fill-rule="evenodd" clip-rule="evenodd" d="M9.375 4.6875C8.9606 4.6875 8.56317 4.85212 8.27015 5.14515C7.97712 5.43817 7.8125 5.8356 7.8125 6.25C7.8125 6.6644 7.97712 7.06183 8.27015 7.35485C8.56317 7.64788 8.9606 7.8125 9.375 7.8125V42.1875H7.8125C7.3981 42.1875 7.00067 42.3521 6.70765 42.6451C6.41462 42.9382 6.25 43.3356 6.25 43.75C6.25 44.1644 6.41462 44.5618 6.70765 44.8549C7.00067 45.1479 7.3981 45.3125 7.8125 45.3125H42.1875C42.6019 45.3125 42.9993 45.1479 43.2924 44.8549C43.5854 44.5618 43.75 44.1644 43.75 43.75C43.75 43.3356 43.5854 42.9382 43.2924 42.6451C42.9993 42.3521 42.6019 42.1875 42.1875 42.1875H40.625V7.8125C41.0394 7.8125 41.4368 7.64788 41.7299 7.35485C42.0229 7.06183 42.1875 6.6644 42.1875 6.25C42.1875 5.8356 42.0229 5.43817 41.7299 5.14515C41.4368 4.85212 41.0394 4.6875 40.625 4.6875H9.375ZM18.75 12.5C18.3356 12.5 17.9382 12.6646 17.6451 12.9576C17.3521 13.2507 17.1875 13.6481 17.1875 14.0625C17.1875 14.4769 17.3521 14.8743 17.6451 15.1674C17.9382 15.4604 18.3356 15.625 18.75 15.625H21.875C22.2894 15.625 22.6868 15.4604 22.9799 15.1674C23.2729 14.8743 23.4375 14.4769 23.4375 14.0625C23.4375 13.6481 23.2729 13.2507 22.9799 12.9576C22.6868 12.6646 22.2894 12.5 21.875 12.5H18.75ZM17.1875 20.3125C17.1875 19.8981 17.3521 19.5007 17.6451 19.2076C17.9382 18.9146 18.3356 18.75 18.75 18.75H21.875C22.2894 18.75 22.6868 18.9146 22.9799 19.2076C23.2729 19.5007 23.4375 19.8981 23.4375 20.3125C23.4375 20.7269 23.2729 21.1243 22.9799 21.4174C22.6868 21.7104 22.2894 21.875 21.875 21.875H18.75C18.3356 21.875 17.9382 21.7104 17.6451 21.4174C17.3521 21.1243 17.1875 20.7269 17.1875 20.3125ZM18.75 25C18.3356 25 17.9382 25.1646 17.6451 25.4576C17.3521 25.7507 17.1875 26.1481 17.1875 26.5625C17.1875 26.9769 17.3521 27.3743 17.6451 27.6674C17.9382 27.9604 18.3356 28.125 18.75 28.125H21.875C22.2894 28.125 22.6868 27.9604 22.9799 27.6674C23.2729 27.3743 23.4375 26.9769 23.4375 26.5625C23.4375 26.1481 23.2729 25.7507 22.9799 25.4576C22.6868 25.1646 22.2894 25 21.875 25H18.75ZM26.5625 14.0625C26.5625 13.6481 26.7271 13.2507 27.0201 12.9576C27.3132 12.6646 27.7106 12.5 28.125 12.5H31.25C31.6644 12.5 32.0618 12.6646 32.3549 12.9576C32.6479 13.2507 32.8125 13.6481 32.8125 14.0625C32.8125 14.4769 32.6479 14.8743 32.3549 15.1674C32.0618 15.4604 31.6644 15.625 31.25 15.625H28.125C27.7106 15.625 27.3132 15.4604 27.0201 15.1674C26.7271 14.8743 26.5625 14.4769 26.5625 14.0625ZM28.125 18.75C27.7106 18.75 27.3132 18.9146 27.0201 19.2076C26.7271 19.5007 26.5625 19.8981 26.5625 20.3125C26.5625 20.7269 26.7271 21.1243 27.0201 21.4174C27.3132 21.7104 27.7106 21.875 28.125 21.875H31.25C31.6644 21.875 32.0618 21.7104 32.3549 21.4174C32.6479 21.1243 32.8125 20.7269 32.8125 20.3125C32.8125 19.8981 32.6479 19.5007 32.3549 19.2076C32.0618 18.9146 31.6644 18.75 31.25 18.75H28.125ZM26.5625 26.5625C26.5625 26.1481 26.7271 25.7507 27.0201 25.4576C27.3132 25.1646 27.7106 25 28.125 25H31.25C31.6644 25 32.0618 25.1646 32.3549 25.4576C32.6479 25.7507 32.8125 26.1481 32.8125 26.5625C32.8125 26.9769 32.6479 27.3743 32.3549 27.6674C32.0618 27.9604 31.6644 28.125 31.25 28.125H28.125C27.7106 28.125 27.3132 27.9604 27.0201 27.6674C26.7271 27.3743 26.5625 26.9769 26.5625 26.5625ZM18.75 40.625V35.9375C18.75 35.5231 18.9146 35.1257 19.2076 34.8326C19.5007 34.5396 19.8981 34.375 20.3125 34.375H29.6875C30.1019 34.375 30.4993 34.5396 30.7924 34.8326C31.0854 35.1257 31.25 35.5231 31.25 35.9375V40.625C31.25 41.0394 31.0854 41.4368 30.7924 41.7299C30.4993 42.0229 30.1019 42.1875 29.6875 42.1875H20.3125C19.8981 42.1875 19.5007 42.0229 19.2076 41.7299C18.9146 41.4368 18.75 41.0394 18.75 40.625Z" fill="white"/>
</svg>
