<svg width="50" height="51" viewBox="0 0 50 51" fill="none" xmlns="http://www.w3.org/2000/svg">
<path d="M4.6875 39.5625C15.8033 39.5534 26.8709 41.0254 37.5979 43.9396C39.1125 44.3521 40.625 43.2271 40.625 41.6562V39.5625M7.8125 9.875V11.4375C7.8125 11.8519 7.64788 12.2493 7.35485 12.5424C7.06183 12.8354 6.6644 13 6.25 13H4.6875M4.6875 13V12.2187C4.6875 10.925 5.7375 9.875 7.03125 9.875H42.1875M4.6875 13V31.75M42.1875 9.875V11.4375C42.1875 12.3 42.8875 13 43.75 13H45.3125M42.1875 9.875H42.9687C44.2625 9.875 45.3125 10.925 45.3125 12.2187V32.5312C45.3125 33.825 44.2625 34.875 42.9687 34.875H42.1875M4.6875 31.75V32.5312C4.6875 33.1529 4.93443 33.749 5.37397 34.1885C5.81351 34.6281 6.40965 34.875 7.03125 34.875H7.8125M4.6875 31.75H6.25C6.6644 31.75 7.06183 31.9146 7.35485 32.2076C7.64788 32.5007 7.8125 32.8981 7.8125 33.3125V34.875M42.1875 34.875V33.3125C42.1875 32.8981 42.3521 32.5007 42.6451 32.2076C42.9382 31.9146 43.3356 31.75 43.75 31.75H45.3125M42.1875 34.875H7.8125M31.25 22.375C31.25 24.0326 30.5915 25.6223 29.4194 26.7944C28.2473 27.9665 26.6576 28.625 25 28.625C23.3424 28.625 21.7527 27.9665 20.5806 26.7944C19.4085 25.6223 18.75 24.0326 18.75 22.375C18.75 20.7174 19.4085 19.1277 20.5806 17.9556C21.7527 16.7835 23.3424 16.125 25 16.125C26.6576 16.125 28.2473 16.7835 29.4194 17.9556C30.5915 19.1277 31.25 20.7174 31.25 22.375ZM37.5 22.375H37.5167V22.3917H37.5V22.375ZM12.5 22.375H12.5167V22.3917H12.5V22.375Z" stroke="white" stroke-width="2" stroke-linecap="round" stroke-linejoin="round"/>
</svg>
